<?xml version="1.0" encoding="UTF-8"?>
<svg width="185px" height="185px" viewBox="0 0 185 185" version="1.1" xmlns="http://www.w3.org/2000/svg" xmlns:xlink="http://www.w3.org/1999/xlink">
    <!-- Generator: Sketch 43 (38999) - http://www.bohemiancoding.com/sketch -->
    <title>avatar</title>
    <desc>Created with Sketch.</desc>
    <defs>
        <circle id="path-1" cx="92.5" cy="92.5" r="92.5"></circle>
    </defs>
    <g id="Page-1" stroke="none" stroke-width="1" fill="none" fill-rule="evenodd">
        <g id="avatar">
            <mask id="mask-2" fill="white">
                <use xlink:href="#path-1"></use>
            </mask>
            <use id="Mask" fill="#D8D8D8" opacity="0.27173913" xlink:href="#path-1"></use>
            <g mask="url(#mask-2)" id="Clipped">
                <g transform="translate(91.500000, 99.500000) scale(-1, 1) translate(-91.500000, -99.500000) translate(6.000000, 13.000000)">
                    <g>
                        <g id="Group">
                            <rect id="Rectangle" fill="#E0AB79" x="75" y="104" width="21" height="24"></rect>
                            <g id="face" transform="translate(36.000000, 0.000000)">
                                <path d="M48.5,110 C76.8476562,110 90,79.2724518 90,50.8297872 C90,22.3871226 71.4198171,7 48.5,7 C25.5801829,7 7,22.3871226 7,50.8297872 C7,79.2724518 20.1523438,110 48.5,110 Z" id="Oval" fill="#E0AB79" fill-rule="nonzero"></path>
                                <path d="M10,21.9157088 C10,21.9157088 17.0473633,1.50292968 49.6137695,0.970214839 C82.3813477,1.50292968 90.7421875,19.5465681 95.0273438,30.950865 C99.3125,42.3551619 100.03125,43.5075056 103.707031,43.5075056 C101.379883,47.1608259 97.0175781,47.1608259 97.0175781,47.1608259 C97.0175781,47.1608259 95.7666016,66.6285994 88.4833984,73.0026228 C84.2021484,58.7416992 86.2641602,52.7050781 86.2641602,52.7050781 C86.2641602,52.7050781 63.8603516,48.8246172 56.8535156,36.9864197 C56.8535156,42.1875 63.3623047,49.0566406 63.3623047,49.0566406 C63.3623047,49.0566406 44.8779297,53.1578963 29.203125,34.5866072 C29.203125,43.5075056 30.9667969,43.4713728 32.6210938,51.2623884 C15.2509766,43.4713728 10.3476562,34.90399 10.3476562,30.2243025 C10.3476562,25.544615 10,21.9157088 10,21.9157088 Z" id="Path-2" fill="#000000" fill-rule="nonzero"></path>
                                <ellipse id="Oval-2" fill="#E0AB79" fill-rule="nonzero" cx="84.5" cy="73.2925532" rx="5.5" ry="9.31382979"></ellipse>
                                <path d="M13.1081408,17 C13.1081408,17 -3.6851911,35.1552734 1.38574216,55.0712891 C6.45667542,74.9873047 11.7568359,73.6064453 11.7568359,73.6064453 L11.7568359,52.6972656 C11.7568359,52.6972656 29.1530626,42.5097656 25.563219,33.7636719 C21.9733753,25.0175781 13.1081408,17 13.1081408,17 Z" id="Path-3" fill="#000000" fill-rule="nonzero"></path>
                                <ellipse id="Oval-2" fill="#E0AB79" fill-rule="nonzero" cx="12.5" cy="73.2925532" rx="5.5" ry="9.31382979"></ellipse>
                                <path d="M14.0800781,84.1699212 C11.6201172,72.3740221 11.8769531,63.6572266 11.8769531,63.6572266 C11.8769531,63.6572266 16.8193357,86.3671858 23.5361326,89.4619141 C30.2529294,92.5566423 37.6328125,86.2597656 47.5371094,86.2597656 C57.4414062,86.2597656 61.4628904,90.7900391 69.4521482,90.7900391 C77.441406,90.7900391 82.6264684,75.8706055 86.4257848,63.6572266 C85.2656286,75.8706055 85.762696,73.8349613 83.8027344,84.1699219 C81.8427727,94.5048825 68.2578125,111.527345 47.5371094,111.527345 C36.4813989,111.527345 18.6083987,101.709962 14.0800781,84.1699212 Z" id="Path-5" fill="#000000" fill-rule="nonzero"></path>
                                <ellipse id="Oval-3" fill="#5F320A" fill-rule="nonzero" cx="33.335" cy="71.25" rx="3.33500004" ry="4.25"></ellipse>
                                <ellipse id="Oval-3" fill="#5F320A" fill-rule="nonzero" cx="67.335" cy="71.25" rx="3.33500004" ry="4.25"></ellipse>
                                <path d="M26,59.6512357 C26,59.6512357 32.7050781,53.9256499 39.0400391,59.3026029" id="Path-4" stroke="#000000" stroke-width="2" stroke-linecap="round" transform="translate(32.520020, 58.325618) rotate(-5.000000) translate(-32.520020, -58.325618) "></path>
                                <path d="M60.0000009,59.6512357 C60.0000009,59.6512357 66.705079,53.9256499 73.04004,59.3026029" id="Path-4" stroke="#000000" stroke-width="2" stroke-linecap="round" transform="translate(66.520020, 58.325618) scale(-1, 1) rotate(-5.000000) translate(-66.520020, -58.325618) "></path>
                                <path d="M43.0000009,98.6512359 C43.0000009,98.6512359 49.705079,92.9256501 56.04004,98.3026031" id="Path-4" stroke="#E0AB79" stroke-width="2" stroke-linecap="round" transform="translate(49.520020, 97.325618) rotate(173.000000) translate(-49.520020, -97.325618) "></path>
                            </g>
                            <polyline id="Path-8" stroke="#295D99" stroke-width="0.5" fill="#487CB9" transform="translate(150.353760, 149.751953) scale(-1, 1) translate(-150.353760, -149.751953) " points="167.879394 127 130 172.503906 170.707519 172.503906"></polyline>
                            <polyline id="Path-8" stroke="#295D99" stroke-width="0.5" fill="#487CB9" points="37.8793945 127 0 172.503906 40.7075195 172.503906"></polyline>
                            <path d="M37.815918,126.919678 L74.609375,119.365234 C74.609375,119.365234 86.6430664,123.501953 96.3520508,119.365234 C105.963379,122.352539 132.828125,126.919678 132.828125,126.919678 L130.572266,172.503906 L40.7075195,172.503906 L37.815918,126.919678 Z" id="Path-6" stroke="#295D99" stroke-width="0.5" fill="#487CB9"></path>
                            <g id="YALL" transform="translate(84.000000, 147.000000) scale(-1, 1) translate(-84.000000, -147.000000) translate(48.000000, 138.000000)" fill="#FFFFFF">
                                <path d="M0.177734375,3.43847656 L0.177734375,1.02636719 L7.93457031,1.02636719 L7.93457031,3.43847656 L5.75097656,3.43847656 L9.12792969,8.89746094 L12.5810547,3.43847656 L10.3974609,3.43847656 L10.3974609,1.02636719 L17.7099609,1.02636719 L17.7099609,3.43847656 L16.4277344,3.43847656 L10.765625,11.7919922 L10.765625,15.4736328 L12.9492188,15.4736328 L12.9492188,18 L4.96386719,18 L4.96386719,15.4736328 L7.14746094,15.4736328 L7.14746094,11.7919922 L1.45996094,3.43847656 L0.177734375,3.43847656 Z M21.0361328,4.796875 L19.5253906,4.796875 L19.5253906,1.02636719 L23.2705078,1.02636719 L23.2705078,4.87304688 L22.0263672,8.19921875 L19.6523438,8.19921875 L21.0361328,4.796875 Z" id="Y’"></path>
                                <path d="M27.2701172,10.2304688 L32.3609375,10.2304688 L29.8726563,3.73046875 L27.2701172,10.2304688 Z M20.5289063,18 L20.5289063,15.4736328 L21.8619141,15.4736328 L27.8921875,0.912109375 L32.2339844,0.912109375 L38.1626953,15.4736328 L39.4830078,15.4736328 L39.4830078,18 L32.3101563,18 L32.3101563,15.4736328 L34.3667969,15.4736328 L33.3511719,12.71875 L26.3560547,12.71875 L25.3150391,15.4736328 L27.3716797,15.4736328 L27.3716797,18 L20.5289063,18 Z" id="A"></path>
                                <polygon id="L" points="59.5689453 15.4736328 59.5689453 3.43847656 57.3853516 3.43847656 57.3853516 1.02636719 65.5992187 1.02636719 65.5992187 3.43847656 63.1871094 3.43847656 63.1871094 15.4736328 68.5445312 15.4736328 68.5445312 11.9697266 71.5279297 11.9697266 71.5279297 18 57.3853516 18 57.3853516 15.4736328"></polygon>
                                <polygon id="L" points="43.5689453 15.4736328 43.5689453 3.43847656 41.3853516 3.43847656 41.3853516 1.02636719 49.5992188 1.02636719 49.5992188 3.43847656 47.1871094 3.43847656 47.1871094 15.4736328 52.5445313 15.4736328 52.5445313 11.9697266 55.5279297 11.9697266 55.5279297 18 41.3853516 18 41.3853516 15.4736328"></polygon>
                            </g>
                        </g>
                    </g>
                </g>
            </g>
        </g>
    </g>
</svg>